# xmcd
#
# Track frame offsets: 
#        150
#        11265
#        50002
#        57630
#        83265
#        97930
#        124030
#        143582
#        158200
#        212865
#        236845
#
# Disc length: 4108 seconds
#
# Revision: 2
# Processed by: cddbd v1.5.2PL0 Copyright (c) Steve Scherf et al.
# Submitted via: ExactAudioCopy v1.0b3
#
DISCID=8a100a0b
DTITLE=Various Artist - The Best of Classic Music on T.V. Commercials
DYEAR=1988
DGENRE=Classical
TTITLE0=J.S. Bach: Suites for Unaccompanied Cello No. 1. BWV 1007: Pré
TTITLE0=lude
TTITLE1=Pablo de Sarasate: Zigeunerweisen
TTITLE2=Ludwig van Beethoven: The Ruins of Athens: Marcia alla turca
TTITLE3=Erik Satie: Gnossienne No. 1
TTITLE4=Gustav Mahler: Das Lied von der Erde: Von der Jugend
TTITLE5=Franz Schubert: Ave Maria, D. 839
TTITLE6=Edvard Grieg: Peer Gynt: Morning Mood
TTITLE7=George Frideric Handel: Serse: Ombra mai fu
TTITLE8=Mendelssohn Bartholdy: A Midsummer Night's Dream: Overture
TTITLE9=George Gershwin: Rhapsody in Blue
TTITLE10=Maurice Ravel: Boléro
EXTD=
EXTT0=
EXTT1=
EXTT2=
EXTT3=
EXTT4=
EXTT5=
EXTT6=
EXTT7=
EXTT8=
EXTT9=
EXTT10=
PLAYORDER=
